<svg id="_x31__x2C_5" enable-background="new 0 0 24 24" height="512" viewBox="0 0 24 24" width="512" xmlns="http://www.w3.org/2000/svg"><path d="m20.823 19.073h-3.645c-.335 0-.608-.272-.608-.608v-1.62c0-.782.636-1.417 1.417-1.417h2.025c.782 0 1.417.636 1.417 1.417v1.62c.001.335-.271.608-.606.608z" fill="#2196f3"/><path d="m7 9.5c-2.481 0-4.5-2.019-4.5-4.5s2.019-4.5 4.5-4.5 4.5 2.019 4.5 4.5-2.019 4.5-4.5 4.5z" fill="#f44336"/><path d="m20.672 23.7h-17.344c-1.422 0-2.578-1.11-2.578-2.475v-1.35c0-.868.736-1.575 1.641-1.575h19.219c.905 0 1.641.707 1.641 1.575v1.35c-.001 1.365-1.157 2.475-2.579 2.475z" fill="#607d8b"/><path d="m21.25 24h-18.5c-1.517 0-2.75-1.233-2.75-2.75v-1.5c0-.965.785-1.75 1.75-1.75h20.5c.965 0 1.75.785 1.75 1.75v1.5c0 1.517-1.233 2.75-2.75 2.75zm-19.5-4.5c-.138 0-.25.112-.25.25v1.5c0 .689.561 1.25 1.25 1.25h18.5c.689 0 1.25-.561 1.25-1.25v-1.5c0-.138-.112-.25-.25-.25z"/><path d="m7 10c-2.757 0-5-2.243-5-5s2.243-5 5-5 5 2.243 5 5-2.243 5-5 5zm0-8.5c-1.93 0-3.5 1.57-3.5 3.5s1.57 3.5 3.5 3.5 3.5-1.57 3.5-3.5-1.57-3.5-3.5-3.5z"/><path d="m5.111 5.75c-.414 0-.75-.336-.75-.75 0-1.455 1.184-2.639 2.639-2.639.414 0 .75.336.75.75s-.336.75-.75.75c-.628 0-1.139.511-1.139 1.139 0 .414-.336.75-.75.75z"/><path d="m11 19.25c-.324 0-.622-.211-.719-.537l-2.72-9.18c-.118-.397.109-.815.506-.932.401-.117.813.11.932.506l2.72 9.18c.118.397-.108.814-.506.932-.071.021-.143.031-.213.031z"/><path d="m21.25 19.5h-4.5c-.414 0-.75-.336-.75-.75v-2c0-.965.785-1.75 1.75-1.75h2.5c.965 0 1.75.785 1.75 1.75v2c0 .414-.336.75-.75.75zm-3.75-1.5h3v-1.25c0-.138-.112-.25-.25-.25h-2.5c-.138 0-.25.112-.25.25z"/></svg>